PathFileType	4	(X/Y/Z)	/Users/itak/Documents/Research/Walk-IL/dataset/trc/00224_00009.trc
DataRate	CameraRate	NumFrames	NumMarkers	Units	OrigDataRate	OrigDataStartFrame	OrigNumFrames
100.000000	100.000000	4	53	mm	100.000000	198	530
Frame#	Time	RPSI			LPSI			L3			STRN			T10			C7			CLAV			RBAK			LBAK			LSHO			LUPA			LAEL			LAOL			LWTS			LWPS			LFRA			LIFD			LHPS			LHTS			RSHO			RUPA			RAEL			RAOL			RWTS			RWPS			RFRA			RIFD			RHTS			RHPS			RBHD			LFHD			RFHD			LBHD			LHIP			RHIP			RASI			LASI			LKNE			LTHI			LANK			LTIP			LTOE			LMT1			LMT5			LHEE			RKNE			RANK			RTIP			RTOE			RMT1			RMT5			RHEE			RTHI			
		X1	Y1	Z1	X2	Y2	Z2	X3	Y3	Z3	X4	Y4	Z4	X5	Y5	Z5	X6	Y6	Z6	X7	Y7	Z7	X8	Y8	Z8	X9	Y9	Z9	X10	Y10	Z10	X11	Y11	Z11	X12	Y12	Z12	X13	Y13	Z13	X14	Y14	Z14	X15	Y15	Z15	X16	Y16	Z16	X17	Y17	Z17	X18	Y18	Z18	X19	Y19	Z19	X20	Y20	Z20	X21	Y21	Z21	X22	Y22	Z22	X23	Y23	Z23	X24	Y24	Z24	X25	Y25	Z25	X26	Y26	Z26	X27	Y27	Z27	X28	Y28	Z28	X29	Y29	Z29	X30	Y30	Z30	X31	Y31	Z31	X32	Y32	Z32	X33	Y33	Z33	X34	Y34	Z34	X35	Y35	Z35	X36	Y36	Z36	X37	Y37	Z37	X38	Y38	Z38	X39	Y39	Z39	X40	Y40	Z40	X41	Y41	Z41	X42	Y42	Z42	X43	Y43	Z43	X44	Y44	Z44	X45	Y45	Z45	X46	Y46	Z46	X47	Y47	Z47	X48	Y48	Z48	X49	Y49	Z49	X50	Y50	Z50	X51	Y51	Z51	X52	Y52	Z52	X53	Y53	Z53	

199	1.98	-905.7783203125	1019.949523925781	-84.44704437255859	-906.4117431640625	1029.6123046875	35.92955017089844	-906.0054321289062	1109.224487304688	-8.156282424926758	-1157.593383789062	1289.767700195312	0.7762072086334229	-901.92333984375	1236.514282226562	-14.67266654968262	-969.728515625	1496.495361328125	-12.98459053039551	-1133.570678710938	1407.911743164062	-3.72663402557373	-893.699462890625	1358.958129882812	-88.3978271484375	-945.2056884765625	1460.905029296875	99.11221313476562	-1033.407348632812	1461.65966796875	157.348388671875	-1007.055236816406	1345.255493164062	238.7230224609375	-1039.281372070312	1137.529052734375	272.8605346679688	-965.95556640625	1113.150146484375	231.2303924560547	-1157.797973632812	917.0906372070312	208.4030609130859	-1142.135375976562	903.0498657226562	290.47265625	-1077.616333007812	1034.397827148438	285.6672973632812	-1182.544189453125	726.570556640625	235.4573364257812	-1171.311157226562	820.5831298828125	294.0586242675781	-1208.3447265625	822.2096557617188	236.4061126708984	-1035.848022460938	1448.732666015625	-176.8881072998047	-1019.454345703125	1383.105712890625	-243.0567626953125	-1008.807983398438	1104.059814453125	-289.0063171386719	-973.7099609375	1090.990600585938	-200.5135498046875	-1170.424926757812	908.35791015625	-254.4294738769531	-1117.796997070312	887.4385986328125	-316.6077270507812	-1042.5322265625	1038.916137695312	-303.7409973144531	-1209.046020507812	719.1976928710938	-249.0175323486328	-1224.572998046875	793.8291625976562	-271.6148071289062	-1170.59130859375	786.1821899414062	-319.5653076171875	-1002.492370605469	1640.05712890625	-67.22952270507812	-1203.407836914062	1703.734497070312	20.05081367492676	-1201.170166015625	1694.45703125	-79.84233093261719	-1049.470703125	1660.96923828125	63.35439300537109	-1004.835815429688	968.7938842773438	180.4137573242188	-1007.6591796875	979.8966674804688	-187.1237182617188	-1103.02099609375	1023.516479492188	-149.3287658691406	-1106.122680664062	1008.323913574219	132.4253387451172	-1049.224243164062	481.9620361328125	118.4277648925781	-1047.519775390625	626.13427734375	151.6629638671875	-833.6901245117188	44.02962493896484	116.4717025756836	-941.9677734375	271.7848815917969	127.3796157836914	-1041.575561523438	46.38729858398438	42.68535995483398	-970.0064086914062	41.48773574829102	5.451261043548584	-963.5223388671875	39.09829330444336	124.0203170776367	-767.2728271484375	60.45806884765625	71.16744232177734	-1179.14453125	515.0784912109375	-161.7319030761719	-1273.592407226562	31.87262535095215	-140.2660522460938	-1223.544311523438	407.6632385253906	-149.0019073486328	-1474.010620117188	90.71857452392578	-115.9945678710938	-1424.978881835938	79.52388763427734	-67.10089874267578	-1380.98779296875	42.17498779296875	-170.4996185302734	-1215.83349609375	32.43745422363281	-76.49020385742188	-1092.445922851562	773.4976196289062	-206.0042877197266	
200	1.99	-897.59814453125	1019.287475585938	-82.97525787353516	-898.2786254882812	1029.1865234375	37.36620330810547	-897.9879760742188	1108.775512695312	-6.444620132446289	-1149.900024414062	1289.030639648438	2.502914190292358	-894.1307373046875	1236.163940429688	-12.29658794403076	-962.3084106445312	1496.107299804688	-10.44864559173584	-1126.0361328125	1407.232299804688	-1.763646721839905	-885.923828125	1358.668212890625	-85.69640350341797	-938.0258178710938	1460.35009765625	101.7147216796875	-1026.453735351562	1460.84033203125	159.6010589599609	-1000.335815429688	1344.595703125	241.1781768798828	-1032.765014648438	1136.970336914062	275.8193054199219	-959.3719482421875	1112.318969726562	234.5340270996094	-1152.843994140625	917.8201293945312	210.1184234619141	-1137.703735351562	903.4229125976562	292.2406616210938	-1071.92626953125	1034.103271484375	288.1481628417969	-1179.579711914062	727.8121337890625	236.4798583984375	-1167.894165039062	821.3046264648438	295.536865234375	-1204.641967773438	823.5220947265625	237.7696380615234	-1027.833374023438	1448.493041992188	-174.6907043457031	-1011.046813964844	1382.921752929688	-240.8782501220703	-999.518310546875	1103.905395507812	-286.9803466796875	-965.4791259765625	1090.687744140625	-198.1775817871094	-1162.021118164062	908.5726318359375	-254.4283752441406	-1108.60400390625	887.4810180664062	-315.9214477539062	-1033.087036132812	1038.800903320312	-302.1128234863281	-1201.400024414062	719.5647583007812	-249.6516571044922	-1216.284301757812	794.2613525390625	-272.3934326171875	-1161.7705078125	786.4324951171875	-319.6361389160156	-995.6282958984375	1639.828369140625	-64.72773742675781	-1196.8779296875	1702.7041015625	22.25886154174805	-1194.438720703125	1693.42626953125	-77.62123107910156	-1042.837890625	1660.551513671875	65.80498504638672	-996.6162719726562	968.5883178710938	181.8958587646484	-999.24853515625	979.1809692382812	-185.7494506835938	-1094.992309570312	1023.122192382812	-147.8406829833984	-1098.0224609375	1008.007446289062	133.9747009277344	-1044.726684570312	481.9509582519531	119.6521835327148	-1041.697631835938	626.0831298828125	153.0780181884766	-833.1301879882812	42.54769515991211	116.555793762207	-939.7969360351562	270.4769592285156	127.8639297485352	-1041.321044921875	46.4861946105957	42.74424362182617	-969.9307861328125	41.24645614624023	5.605849266052246	-963.3937377929688	39.06662750244141	124.0570602416992	-766.7492065429688	58.02254104614258	70.98569488525391	-1175.480834960938	516.3521118164062	-161.2406921386719	-1271.974487304688	31.7984619140625	-140.4275512695312	-1220.52587890625	408.7625427246094	-148.8388977050781	-1470.852783203125	95.55142974853516	-116.0127639770508	-1421.910888671875	83.47566223144531	-67.17644500732422	-1379.068115234375	44.37556838989258	-170.5557861328125	-1213.874145507812	31.47200393676758	-77.04325103759766	-1086.391479492188	773.3032836914062	-204.0694274902344	
201	2	-889.49853515625	1018.815795898438	-81.55239105224609	-890.2301025390625	1028.9296875	38.76280975341797	-889.9956665039062	1108.529663085938	-4.831024169921875	-1142.249755859375	1288.541870117188	4.145184993743896	-886.3797607421875	1235.991821289062	-10.1171236038208	-954.8722534179688	1495.9228515625	-8.030083656311035	-1118.489624023438	1406.787963867188	0.1315641850233078	-878.1712036132812	1358.574096679688	-83.16286468505859	-930.7831420898438	1459.963623046875	104.180778503418	-1019.401123046875	1460.184936523438	161.7574310302734	-993.5130004882812	1344.092895507812	243.5439300537109	-1026.125	1136.57177734375	278.729248046875	-952.642822265625	1111.669067382812	237.7779541015625	-1147.557983398438	918.6131591796875	211.8548278808594	-1132.934936523438	903.873779296875	294.0285949707031	-1066.024536132812	1033.941772460938	290.6051940917969	-1176.400146484375	729.1148681640625	237.5606384277344	-1164.1259765625	822.1062622070312	297.0273742675781	-1200.592895507812	824.9339599609375	239.1620635986328	-1019.865112304688	1448.487670898438	-172.5933532714844	-1002.726623535156	1382.9853515625	-238.8208160400391	-990.3344116210938	1103.995483398438	-285.1073608398438	-957.2659912109375	1090.643432617188	-196.0625305175781	-1153.515869140625	908.9107055664062	-254.4217071533203	-1099.372802734375	887.694091796875	-315.2886352539062	-1023.695434570312	1038.912841796875	-300.5982055664062	-1193.508178710938	720.0389404296875	-250.2515869140625	-1207.8251953125	794.7845458984375	-273.1072387695312	-1152.825073242188	786.813720703125	-319.6990051269531	-988.7511596679688	1639.837646484375	-62.26505279541016	-1190.305541992188	1701.887817382812	24.4687385559082	-1187.688598632812	1692.645141601562	-75.39682769775391	-1036.172729492188	1660.331176757812	68.22811126708984	-988.4993286132812	968.6048583984375	183.3065338134766	-990.9132690429688	978.6793212890625	-184.4235992431641	-1087.003051757812	1022.936340332031	-146.4028015136719	-1090.030517578125	1007.922241210938	135.4366760253906	-1040.859252929688	482.1683654785156	121.0055313110352	-1036.338500976562	626.2518920898438	154.5689392089844	-832.7576293945312	41.46294021606445	116.744140625	-938.0545654296875	269.536376953125	128.4731750488281	-1041.151733398438	46.54985809326172	42.81597900390625	-969.9159545898438	41.11630630493164	5.800761699676514	-963.340087890625	39.02638244628906	124.119255065918	-766.4356079101562	56.21393203735352	70.97174072265625	-1171.788330078125	517.8250732421875	-160.7567596435547	-1269.67041015625	32.06478881835938	-140.5943908691406	-1217.391479492188	410.0356140136719	-148.5920715332031	-1467.240844726562	99.81071472167969	-115.6758422851562	-1418.273803710938	86.96212005615234	-66.99917602539062	-1376.520751953125	46.74358749389648	-170.5186309814453	-1211.220336914062	30.80331993103027	-77.61803436279297	-1081.210205078125	773.2195434570312	-201.6289825439453	
202	2.01	-881.5011596679688	1018.552185058594	-80.17397308349609	-882.2874145507812	1028.846557617188	40.12274932861328	-882.0379638671875	1108.513549804688	-3.321417808532715	-1134.645141601562	1288.326293945312	5.702277660369873	-878.6677856445312	1236.02978515625	-8.159533500671387	-947.4297485351562	1495.95751953125	-5.746626377105713	-1110.940185546875	1406.601928710938	1.955498576164246	-870.453125	1358.701782226562	-80.82814025878906	-923.4779663085938	1459.76904296875	106.4899063110352	-1012.240234375	1459.729614257812	163.8058319091797	-986.5830688476562	1343.779907226562	245.8076171875	-1019.378479003906	1136.369140625	281.534912109375	-945.7821044921875	1111.230224609375	240.9114074707031	-1141.923828125	919.4624633789062	213.6080780029297	-1127.807861328125	904.41357421875	295.8412780761719	-1059.918212890625	1033.945678710938	293.0155944824219	-1172.935302734375	730.4625244140625	238.7377471923828	-1159.969848632812	822.9978637695312	298.5471496582031	-1196.16943359375	826.4349975585938	240.594482421875	-1011.970336914062	1448.735595703125	-170.6044921875	-994.5223999023438	1383.315185546875	-236.8895874023438	-981.2939453125	1104.354614257812	-283.39111328125	-949.0792846679688	1090.882934570312	-194.1604461669922	-1144.909545898438	909.366455078125	-254.389892578125	-1090.122314453125	888.0927124023438	-314.70849609375	-1014.407836914062	1039.2734375	-299.2028503417969	-1185.333984375	720.6030883789062	-250.8045196533203	-1199.199340820312	795.3840942382812	-273.7400207519531	-1143.745239257812	787.328857421875	-319.7458801269531	-981.8650512695312	1640.105712890625	-59.85526275634766	-1183.69482421875	1701.303588867188	26.67853736877441	-1180.927001953125	1692.137939453125	-73.177734375	-1029.474975585938	1660.3232421875	70.60890197753906	-980.525390625	968.82958984375	184.6451416015625	-982.6915893554688	978.4264526367188	-183.1410980224609	-1079.075927734375	1022.98583984375	-145.0158996582031	-1082.16357421875	1008.078552246094	136.8169097900391	-1037.561645507812	482.6220092773438	122.4374313354492	-1031.400268554688	626.6405639648438	156.0964813232422	-832.5516967773438	40.74479293823242	116.9673080444336	-936.6776733398438	268.9710388183594	129.1584014892578	-1041.085327148438	46.57482528686523	42.88892364501953	-969.9495849609375	41.0611572265625	5.991785049438477	-963.3414306640625	38.98262786865234	124.1965866088867	-766.3028564453125	55.00073623657227	71.0438232421875	-1168.06298828125	519.50341796875	-160.2495269775391	-1266.452880859375	32.72780227661133	-140.7779846191406	-1214.109252929688	411.4819641113281	-148.2230529785156	-1463.021850585938	103.30224609375	-115.0039367675781	-1413.940307617188	89.80062866210938	-66.57250213623047	-1373.151611328125	49.14649200439453	-170.3728485107422	-1207.66455078125	30.55239105224609	-78.2047119140625	-1076.536865234375	773.363037109375	-198.9467926025391	
